<svg fill="#073551" viewBox="0 0 24 24" xmlns="http://www.w3.org/2000/svg"><path d="M.803 14.817c0-.534.433-.967.967-.967.533 0 .966.433.966.967 0 .533-.433.966-.966.966-.534 0-.967-.433-.967-.966m2.736 0c0-.196-.053-.376-.112-.553-.234-.702-.876-1.217-1.658-1.217-.125 0-.234.047-.352.071C.615 13.287 0 13.965 0 14.817c0 .976.792 1.769 1.77 1.769.977 0 1.769-.793 1.769-1.769m-1.77-7.149c.534 0 .967.433.967.967 0 .533-.433.966-.967.966-.534 0-.967-.433-.967-.966 0-.534.433-.967.967-.967m0 2.736c.977 0 1.769-.792 1.769-1.77 0-.195-.053-.376-.112-.552-.234-.703-.877-1.217-1.658-1.217-.125 0-.234.047-.352.072C.615 7.104 0 7.782 0 8.634c0 .977.792 1.77 1.77 1.77m13.221-5.694c-.534 0-.967-.433-.967-.967a.966.966 0 01.967-.966c.533 0 .966.432.966.966 0 .534-.433.967-.966.967m-9.6 16.513c-.534 0-.967-.433-.967-.967 0-.534.433-.966.967-.966a.966.966 0 01.966.966c0 .534-.432.967-.966.967m9.6-19.25c-.978 0-1.77.793-1.77 1.77 0 .208.053.402.119.588L5.039 18.558c-.803.168-1.418.846-1.418 1.699 0 .977.792 1.769 1.77 1.769.977 0 1.769-.792 1.769-1.769 0-.196-.053-.376-.111-.553l8.343-14.273c.778-.186 1.368-.853 1.368-1.688 0-.977-.793-1.769-1.77-1.769m7.24 2.736c-.534 0-.967-.433-.967-.967a.966.966 0 01.967-.966c.533 0 .967.432.967.966 0 .534-.434.967-.967.967M12.631 21.223c-.534 0-.967-.433-.967-.967a.966.966 0 01.967-.966c.533 0 .966.433.966.966 0 .534-.433.967-.966.967M22.23 1.974c-.977 0-1.769.792-1.769 1.77 0 .208.053.402.119.588l-8.301 14.227c-.802.168-1.417.846-1.417 1.698 0 .977.792 1.77 1.77 1.77.976 0 1.769-.793 1.769-1.77 0-.196-.053-.376-.111-.553l8.343-14.273C23.409 5.245 24 4.578 24 3.743c0-.977-.792-1.77-1.77-1.77"/></svg>
